<svg xmlns="http://www.w3.org/2000/svg" xmlns:xlink="http://www.w3.org/1999/xlink" version="1.1" x="0px" y="0px" viewBox="0 0 96 120" enable-background="new 0 0 96 96" xml:space="preserve"><path d="M88.501,42.853c-0.001-4.411-3.44-11.215-8.008-11.215c-2.219,0-4.312,0.943-5.827,2.606  c-1.517-1.664-3.609-2.606-5.828-2.606c-3.544,0-6.4,4.095-7.506,7.991c-1.109-3.896-3.967-7.991-7.509-7.991  c-2.219,0-4.311,0.943-5.826,2.606c-1.515-1.663-3.607-2.605-5.827-2.605c-3.509,0-6.387,4.108-7.504,7.992  c-1.117-3.884-3.995-7.993-7.507-7.993c-2.22,0-4.313,0.942-5.826,2.605c-1.514-1.663-3.606-2.605-5.826-2.605  c-4.568,0-8.007,6.804-8.007,11.215c0,0.377,0.021,0.816,0.062,1.289c0.016,0.198,0.099,0.367,0.209,0.515  C7.694,44.822,7.648,45,7.672,45.185c0.324,2.608,1.386,7.79,3.129,9.305c0.97,6.369,3.377,9.873,6.79,9.873  c0.061,0,0.193-0.009,0.271-0.03c0.521-0.119,0.856-0.625,0.762-1.152c-0.217-1.197-0.327-2.482-0.327-3.819  c0-5.715,2.051-5.715,3.036-5.715c0.986,0,3.037,0,3.037,5.715c0,1.338-0.11,2.622-0.327,3.818  c-0.097,0.528,0.237,1.035,0.745,1.149c0.094,0.025,0.226,0.034,0.287,0.034c3.411,0,5.819-3.504,6.791-9.873  c1.351-1.176,2.292-4.56,2.799-7.236c0.506,2.677,1.447,6.062,2.801,7.238c0.969,6.368,3.376,9.871,6.79,9.871  c0.061,0,0.192-0.009,0.271-0.03c0.522-0.12,0.856-0.625,0.761-1.149c-0.213-1.19-0.326-2.511-0.326-3.82  c0-5.717,2.051-5.717,3.036-5.717s3.036,0,3.036,5.717c0,1.308-0.113,2.628-0.327,3.818c-0.094,0.524,0.238,1.03,0.768,1.153  c0.064,0.014,0.187,0.028,0.265,0.028c3.411,0,5.818-3.504,6.788-9.871c1.356-1.177,2.299-4.568,2.804-7.247  c0.507,2.679,1.448,6.068,2.803,7.245c0.969,6.369,3.376,9.873,6.79,9.873c0.077,0,0.199-0.015,0.276-0.031  c0.517-0.123,0.848-0.628,0.755-1.151c-0.214-1.189-0.327-2.51-0.327-3.817c0-5.717,2.052-5.717,3.037-5.717s3.036,0,3.036,5.717  c0,1.338-0.109,2.622-0.326,3.817c-0.093,0.516,0.232,1.02,0.742,1.148c0.086,0.021,0.215,0.034,0.289,0.034  c3.412,0,5.819-3.504,6.789-9.873c1.743-1.514,2.806-6.696,3.13-9.304c0.024-0.187-0.022-0.366-0.1-0.535  c0.111-0.146,0.196-0.313,0.212-0.507C88.479,43.669,88.501,43.229,88.501,42.853z M30.538,52.99l-0.179,0.125  c-0.225,0.159-0.375,0.405-0.412,0.674l-0.031,0.212c-0.645,4.397-1.973,7.284-3.699,8.117c0.101-0.888,0.151-1.813,0.151-2.76  c0-5.119-1.695-7.715-5.037-7.715c-3.342,0-5.036,2.596-5.036,7.715c0,0.936,0.05,1.854,0.15,2.739  c-1.748-0.836-3.047-3.662-3.696-8.096l-0.031-0.214c-0.039-0.269-0.189-0.514-0.415-0.675l-0.175-0.123  c-0.753-0.529-1.777-3.631-2.312-6.932h6.917v0.1c0,0.551,0.449,1,1,1h7.196c0.551,0,1-0.449,1-1v-0.1h6.917  C32.312,49.359,31.288,52.462,30.538,52.99z M24.084,44.562c-0.088,0.148-0.153,0.313-0.153,0.498v0.1h-5.196v-0.1  c0-0.187-0.065-0.352-0.155-0.501c0.088-0.149,0.153-0.313,0.153-0.499v-0.099h5.196v0.099  C23.929,44.246,23.995,44.411,24.084,44.562z M33.122,44.06h-7.193v-1.099c0-0.552-0.449-1-1-1h-7.196c-0.551,0-1,0.448-1,1v1.099  H9.545c0-0.028,0.012-0.054,0.009-0.083C9.52,43.563,9.5,43.182,9.5,42.853c0-3.466,2.909-9.215,6.007-9.215  c1.803,0,3.497,0.841,4.647,2.306l0.393,0.499c0.371,0.474,1.203,0.473,1.573,0.001l0.393-0.5c1.151-1.465,2.845-2.306,4.647-2.306  c3.098,0,6.008,5.749,6.008,9.215c0,0.329-0.021,0.71-0.054,1.125C33.11,44.006,33.122,44.032,33.122,44.06z M57.2,52.992  l-0.176,0.123c-0.225,0.157-0.376,0.404-0.415,0.675l-0.031,0.213c-0.643,4.399-1.971,7.287-3.697,8.118  c0.101-0.9,0.153-1.841,0.153-2.761c0-5.12-1.694-7.717-5.036-7.717s-5.036,2.597-5.036,7.717c0,0.913,0.052,1.846,0.151,2.738  c-1.75-0.835-3.049-3.66-3.698-8.095l-0.031-0.214c-0.04-0.273-0.192-0.521-0.414-0.674l-0.175-0.124  c-0.754-0.53-1.777-3.633-2.313-6.935h6.916v0.101c0,0.551,0.449,1,1,1h7.198c0.552,0,1-0.449,1-1v-0.101h6.918  C58.979,49.359,57.954,52.462,57.2,52.992z M50.75,44.559c-0.089,0.149-0.153,0.314-0.153,0.5v0.101h-5.198v-0.101  c0-0.186-0.065-0.351-0.154-0.5c0.089-0.149,0.154-0.313,0.154-0.5v-0.098h5.198v0.098C50.597,44.245,50.661,44.409,50.75,44.559z   M59.79,44.059h-7.193v-1.098c0-0.552-0.448-1-1-1h-7.198c-0.551,0-1,0.448-1,1v1.098h-7.186c0-0.028,0.012-0.055,0.009-0.083  c-0.035-0.412-0.054-0.793-0.054-1.121c0-3.467,2.909-9.216,6.006-9.216c1.803,0,3.497,0.841,4.65,2.309l0.395,0.499  c0.384,0.482,1.189,0.48,1.568-0.002l0.394-0.5c1.152-1.466,2.846-2.307,4.646-2.307c3.098,0,6.008,5.749,6.008,9.216  c0,0.329-0.021,0.709-0.055,1.123C59.778,44.005,59.79,44.031,59.79,44.059z M83.872,52.989l-0.18,0.124  c-0.225,0.157-0.376,0.404-0.415,0.675l-0.031,0.213c-0.645,4.403-1.972,7.292-3.697,8.122c0.102-0.894,0.152-1.819,0.152-2.763  c0-5.12-1.694-7.717-5.036-7.717c-3.343,0-5.037,2.597-5.037,7.717c0,0.912,0.052,1.846,0.151,2.738  c-1.75-0.835-3.049-3.662-3.695-8.098l-0.032-0.215c-0.04-0.271-0.191-0.517-0.414-0.673l-0.176-0.123  c-0.754-0.53-1.778-3.632-2.313-6.933h6.918v0.1c0,0.551,0.448,1,1,1h7.197c0.552,0,1-0.449,1-1v-0.099h6.916  C85.645,49.358,84.621,52.46,83.872,52.989z M77.417,44.561c-0.088,0.148-0.152,0.313-0.152,0.498v0.1h-5.197v-0.1  c0-0.187-0.065-0.352-0.154-0.501c0.088-0.149,0.152-0.313,0.152-0.499V43.96h5.197v0.099C77.263,44.245,77.328,44.41,77.417,44.561  z M86.456,44.059h-7.193V42.96c0-0.552-0.448-1-1-1h-7.197c-0.552,0-1,0.448-1,1v1.099h-7.189c0-0.027,0.012-0.054,0.01-0.082  c-0.033-0.413-0.055-0.795-0.055-1.123c0-3.467,2.909-9.216,6.007-9.216c1.8,0,3.495,0.841,4.65,2.307l0.393,0.497  c0.368,0.474,1.199,0.474,1.571,0.002l0.393-0.498c1.155-1.467,2.85-2.308,4.649-2.308c3.098,0,6.007,5.749,6.007,9.215  c0,0.329-0.021,0.71-0.055,1.123C86.444,44.004,86.456,44.03,86.456,44.059z"/></svg>