<svg xmlns="http://www.w3.org/2000/svg" xmlns:xlink="http://www.w3.org/1999/xlink" version="1.1"
    x="0px" y="0px" viewBox="0 0 512 640" enable-background="new 0 0 512 512" xml:space="preserve"><g><path d="M297.447,230.032c-11.075,0-23.063,1.719-35.764,5.109v-36.124c0-4.418-3.581-8-8-8s-8,3.582-8,8v37.244   c-14.203-4.136-27.557-6.23-39.799-6.23c-25.808,0-45.814,9.538-56.333,26.857c-13.177,21.695-10.25,53.246,8.248,88.851   c10.206,19.573,16.007,36.896,16.337,48.789c0.039,1.355,0.036,3.591,0.032,6.421c-0.05,37.577,2.085,78.181,18.305,94.421   c4.679,4.686,10.444,7.161,16.673,7.161c2.334,0,4.758-0.346,7.242-1.039c6.323-1.798,7.675-9.083,8.762-14.937   c0.996-5.366,1.94-12.516,3.033-20.793c2.221-16.821,4.986-37.757,9.625-54.364c5.004-17.914,10.561-24.351,14.124-24.402   c3.122,0,8.532,6.358,13.5,24.279c4.623,16.671,7.459,37.694,9.738,54.587c3.57,26.467,4.529,33.58,11.808,35.64   c2.447,0.684,4.87,1.029,7.202,1.029c0.002,0,0.003,0,0.004,0c6.228-0.001,11.991-2.478,16.669-7.161   c16.215-16.24,18.352-56.84,18.304-94.414c-0.004-2.833-0.007-5.07,0.033-6.436c0.332-11.902,6.134-29.226,16.341-48.791   c18.495-35.597,21.424-67.148,8.248-88.843C343.263,239.569,323.257,230.032,297.447,230.032z M331.342,338.341   c-7.994,15.324-17.632,37.433-18.144,55.724c-0.046,1.6-0.043,3.944-0.039,6.913c0.022,17.152,0.089,69.352-13.626,83.087   c-1.996,1.998-3.689,2.404-4.992,2.46c-1.093-4.867-2.411-14.638-3.512-22.801c-6.844-50.733-14.51-92.728-39.095-92.728   l-0.264,0.002c-27.162,0.395-33.919,51.559-39.348,92.67c-1.083,8.196-2.379,18.016-3.477,22.858   c-1.311-0.046-3.025-0.435-5.05-2.462c-13.718-13.737-13.649-65.939-13.626-83.094c0.004-2.965,0.007-5.308-0.039-6.896   c-0.507-18.275-10.146-40.395-18.138-55.723c-15.816-30.442-18.93-56.424-8.766-73.158c7.614-12.537,22.365-19.163,42.658-19.163   c11.979,0,25.354,2.343,39.799,6.961v41.799l-12.171-13.188c-2.997-3.248-8.058-3.45-11.305-0.453   c-3.247,2.997-3.45,8.058-0.453,11.305l26.05,28.225c0.034,0.036,0.071,0.067,0.105,0.103c0.08,0.083,0.161,0.164,0.244,0.244   c0.038,0.036,0.07,0.075,0.108,0.11c0.026,0.024,0.055,0.045,0.082,0.068c0.056,0.051,0.112,0.099,0.168,0.147   c0.071,0.06,0.143,0.117,0.216,0.175c0.08,0.063,0.161,0.126,0.244,0.187c0.062,0.045,0.122,0.091,0.185,0.134   c0.061,0.042,0.124,0.081,0.187,0.121c0.1,0.064,0.2,0.126,0.301,0.186c0.064,0.037,0.127,0.078,0.192,0.114   c0.053,0.029,0.108,0.054,0.162,0.082c0.118,0.062,0.238,0.118,0.358,0.173c0.064,0.029,0.127,0.064,0.192,0.092   c0.047,0.021,0.095,0.035,0.143,0.055c0.129,0.052,0.259,0.098,0.39,0.143c0.11,0.038,0.219,0.076,0.331,0.109   c0.136,0.04,0.274,0.073,0.412,0.105c0.109,0.026,0.218,0.055,0.329,0.076c0.158,0.031,0.316,0.052,0.475,0.073   c0.083,0.011,0.165,0.028,0.249,0.036c0.011,0.001,0.022,0.001,0.033,0.002c0.257,0.024,0.514,0.039,0.771,0.039c0,0,0,0,0.001,0   s0,0,0.001,0s0,0,0.001,0s0,0,0.001,0c0.257,0,0.515-0.015,0.771-0.039c0.011-0.001,0.022-0.001,0.033-0.002   c0.084-0.008,0.165-0.025,0.248-0.036c0.16-0.021,0.319-0.042,0.477-0.073c0.11-0.021,0.217-0.049,0.325-0.075   c0.14-0.033,0.28-0.066,0.418-0.107c0.109-0.032,0.215-0.069,0.322-0.106c0.135-0.046,0.269-0.093,0.401-0.146   c0.046-0.019,0.094-0.034,0.139-0.054c0.063-0.026,0.123-0.06,0.186-0.088c0.125-0.058,0.248-0.116,0.371-0.18   c0.051-0.027,0.104-0.052,0.154-0.079c0.064-0.035,0.125-0.074,0.188-0.111c0.105-0.062,0.21-0.126,0.313-0.193   c0.06-0.039,0.12-0.076,0.178-0.116c0.062-0.042,0.122-0.087,0.183-0.132c0.086-0.063,0.171-0.129,0.256-0.195   c0.069-0.056,0.139-0.11,0.207-0.168c0.056-0.048,0.111-0.097,0.167-0.146c0.028-0.026,0.059-0.048,0.087-0.073   c0.04-0.037,0.074-0.078,0.113-0.115c0.08-0.077,0.158-0.156,0.235-0.236c0.035-0.037,0.073-0.068,0.108-0.106l26.009-28.225   c2.994-3.249,2.787-8.31-0.462-11.304c-3.247-2.993-8.31-2.788-11.304,0.462l-12.127,13.16v-43.011   c12.904-3.798,24.908-5.726,35.764-5.726c20.294,0,35.045,6.625,42.658,19.161C350.269,281.925,347.154,307.907,331.342,338.341z"/><path d="M439.653,56.021c-18.234-30.02-53.288-46.553-98.703-46.553c-25.75,0-54.313,5.158-84.936,15.335   c-30.63-10.177-59.2-15.335-84.955-15.335c-45.436,0-80.499,16.535-98.73,46.558C49.173,94.16,54.693,150.319,87.889,214.188   c2.53,4.82,5.043,9.857,7.473,14.971c1.325,2.79,4.138,4.568,7.226,4.568h35.64c4.418,0,8-3.582,8-8v-59.553   c0-4.204,5.467-8.889,13.313-8.889h192.943c7.849,0,13.317,4.685,13.317,8.889v59.553c0,4.418,3.582,8,8,8h35.636   c3.087,0,5.897-1.776,7.224-4.563c2.508-5.271,5.021-10.309,7.486-15.005C457.311,150.319,462.817,94.158,439.653,56.021z    M409.964,206.752c-1.827,3.481-3.687,7.158-5.551,10.974h-22.611v-51.553c0-13.724-13.151-24.889-29.317-24.889H159.541   c-16.163,0-29.313,11.165-29.313,24.889v51.553h-22.615c-1.825-3.733-3.683-7.402-5.542-10.945   C71.568,148.092,65.862,97.502,86.006,64.331c15.438-25.424,44.85-38.862,85.054-38.862c19.904,0,41.753,3.354,65.141,9.975   l-52.786,30.47c-3.826,2.209-5.138,7.102-2.929,10.928c1.482,2.567,4.171,4.002,6.936,4.002c1.357,0,2.732-0.346,3.992-1.073   l64.602-37.29l64.597,37.29c1.26,0.727,2.636,1.073,3.992,1.073c2.766,0,5.455-1.435,6.937-4.002   c2.209-3.827,0.897-8.719-2.929-10.928l-52.784-30.471c23.38-6.621,45.224-9.975,65.122-9.975   c40.185,0,69.587,13.438,85.028,38.859C446.129,97.503,440.437,148.094,409.964,206.752z"/></g></svg>