<svg xmlns="http://www.w3.org/2000/svg" viewBox="0 0 512 640" x="0px" y="0px"><g><path d="M417.2461,261.9482l14.7695-89.6553a7.9986,7.9986,0,0,0-3.59-8.0439C381.1875,134.1044,319.9521,117.5034,256,117.5034S130.8125,134.1044,83.5742,164.249a7.9986,7.9986,0,0,0-3.59,8.0439l14.77,89.6553L80.0186,339.5141a8.0005,8.0005,0,0,0,3.5556,8.2368C130.8125,377.8954,192.0479,394.4965,256,394.4965s125.1875-16.6011,172.4258-46.7456a8.0005,8.0005,0,0,0,3.5556-8.2368ZM256,378.4965c-58.8809,0-115.1826-14.665-159.2393-41.3843l6.308-33.2049a38.776,38.776,0,0,0,62.5392,14.9346,49.8472,49.8472,0,0,0,88.3659,8.9658,49.8506,49.8506,0,0,0,88.5188-9.3534,38.7791,38.7791,0,0,0,64.9754-22.25l7.7713,40.9075C371.1826,363.8315,314.8809,378.4965,256,378.4965Zm6.5332-157.2373a33.8853,33.8853,0,0,1,67.77,0v30.88a.8949.8949,0,0,1-.8721.8721H263.4053a.8949.8949,0,0,1-.8721-.8721Zm83.77,10.5108a22.8106,22.8106,0,1,1,45.6211,0v21.2417H346.3037V231.77Zm-100.33,68.9936a33.8853,33.8853,0,1,1-67.77,0v-30.88a.8944.8944,0,0,1,.8721-.8715h66.0264a.8943.8943,0,0,1,.872.8715Zm-83.77-10.5107a22.8106,22.8106,0,0,1-45.6211,0V269.0117h45.6211v21.2412Zm99.77-20.37a.8944.8944,0,0,1,.8721-.8715H328.873a.8942.8942,0,0,1,.8711.8715v30.88a33.8853,33.8853,0,1,1-67.7705,0Zm84.33-.8715h45.6211v21.2412a22.8106,22.8106,0,0,1-45.6211,0Zm-99.77-16.8721a.8949.8949,0,0,1-.8721.8721H179.6338a.8949.8949,0,0,1-.8721-.8721v-30.88a33.8858,33.8858,0,0,1,67.7715,0Zm-84.33.8721H116.582V231.77a22.8106,22.8106,0,1,1,45.6211,0Zm245.012-28.6058a38.78,38.78,0,0,0-64.3162-21.2249,49.8471,49.8471,0,0,0-88.3658-8.9659,49.8514,49.8514,0,0,0-88.5194,9.3528,38.7666,38.7666,0,0,0-62.4651,13.3329l-6.909-41.94c44.0752-26.7671,100.4239-41.4575,159.36-41.4575s115.2852,14.69,159.36,41.4575Z"/></g></svg>