<svg xmlns="http://www.w3.org/2000/svg" viewBox="0 0 512 640" x="0px" y="0px"><path d="M504,88h-224v-24c0-4.42-3.58-8-8-8h-32c-4.42,0-8,3.58-8,8v24H8c-4.42,0-8,3.58-8,8V448c0,4.42,3.58,8,8,8H504c4.42,0,8-3.58,8-8V96c0-4.42-3.58-8-8-8Zm-256-16h16v40h-16v-40Zm248,368H16V104H232v16c0,4.42,3.58,8,8,8h32c4.42,0,8-3.58,8-8v-16h216V440Z"/><path d="M256,164.73c-5.37-7.61-13.41-12.73-24-12.73s-18.63,5.11-24,12.73c-5.37-7.61-13.41-12.73-24-12.73-8.96,0-16.09,3.67-21.33,9.41-4.04-6.11-10.47-9.41-18.67-9.41-10.28,0-18.15,4.82-23.52,12.06-4.26-7.15-10.02-12.06-16.48-12.06s-11.79,4.56-16,11.27c-4.21-6.72-9.78-11.27-16-11.27-13.52,0-24,21.5-24,40v16c0,13.23,10.77,24,24,24,6.14,0,11.75-2.32,16-6.13,4.25,3.81,9.86,6.13,16,6.13,4.13,0,8.03-1.05,11.43-2.9,5.7,16.51,17.59,26.9,28.57,26.9,2.12,0,4.16-.84,5.66-2.34l11.12-11.12c4.15,3.41,9.45,5.46,15.22,5.46h16c4.28,0,8.3-1.13,11.78-3.1,4.27,6.67,11.74,11.1,20.22,11.1h16c6.14,0,11.75-2.32,16-6.13,4.25,3.81,9.86,6.13,16,6.13h16c8.49,0,15.95-4.43,20.22-11.1,3.48,1.97,7.5,3.1,11.78,3.1h16c5.77,0,11.08-2.05,15.22-5.46l11.12,11.12c1.5,1.5,3.54,2.34,5.66,2.34,10.99,0,22.87-10.39,28.57-26.9,3.4,1.85,7.29,2.9,11.43,2.9,6.14,0,11.75-2.32,16-6.13,4.25,3.81,9.86,6.13,16,6.13,13.23,0,24-10.77,24-24v-16c0-18.5-10.48-40-24-40-6.22,0-11.79,4.56-16,11.27-4.21-6.72-9.78-11.27-16-11.27s-12.22,4.92-16.48,12.06c-5.37-7.24-13.24-12.06-23.52-12.06-8.2,0-14.63,3.3-18.67,9.41-5.24-5.74-12.37-9.41-21.33-9.41-10.59,0-18.63,5.11-24,12.73-5.37-7.61-13.41-12.73-24-12.73s-18.63,5.11-24,12.73Zm-176,43.27c0,4.41-3.59,8-8,8s-8-3.59-8-8v-16c0-11.27,5.04-20.89,8-23.54,2.96,2.65,8,12.28,8,23.54v16Zm32,0c0,4.41-3.59,8-8,8s-8-3.59-8-8v-16c0-11.27,5.04-20.89,8-23.54,2.96,2.65,8,12.28,8,23.54v16Zm40,16v4.69l-10.53,10.53c-5.41-2.98-13.47-14.26-13.47-31.22v-16c0-8.3,3.34-24,16-24,3.8,0,5.24,1.02,6.41,4.53,1.59,4.77,1.59,12.24,1.59,19.47v32Zm48,0c0,4.41-3.59,8-8,8h-16c-4.41,0-8-3.59-8-8v-32c0-8.3,3.34-24,16-24s16,15.7,16,24v32Zm48,8c0,4.41-3.59,8-8,8h-16c-4.41,0-8-3.59-8-8v-40c0-8.3,3.34-24,16-24s16,15.7,16,24v40Zm184-40c0-11.27,5.04-20.89,8-23.54,2.96,2.65,8,12.28,8,23.54v16c0,4.41-3.59,8-8,8s-8-3.59-8-8v-16Zm-32,0c0-11.27,5.04-20.89,8-23.54,2.96,2.65,8,12.28,8,23.54v16c0,4.41-3.59,8-8,8s-8-3.59-8-8v-16Zm-40,32v-32c0-7.23,0-14.7,1.59-19.47,1.17-3.51,2.61-4.53,6.41-4.53,12.66,0,16,15.7,16,24v16c0,16.96-8.06,28.24-13.47,31.22l-10.53-10.53v-4.69Zm-48-32c0-8.3,3.34-24,16-24s16,15.7,16,24v32c0,4.41-3.59,8-8,8h-16c-4.41,0-8-3.59-8-8v-32Zm-16,0v40c0,4.41-3.59,8-8,8h-16c-4.41,0-8-3.59-8-8v-40c0-8.3,3.34-24,16-24s16,15.7,16,24Z"/><path d="M440,304c-6.14,0-11.75,2.32-16,6.13-4.25-3.81-9.86-6.13-16-6.13-4.13,0-8.03,1.05-11.43,2.9-5.7-16.51-17.59-26.9-28.57-26.9-2.12,0-4.16,.84-5.66,2.34l-11.12,11.12c-4.15-3.41-9.45-5.46-15.22-5.46h-16c-4.28,0-8.3,1.13-11.78,3.1-4.27-6.67-11.74-11.1-20.22-11.1h-16c-6.14,0-11.75,2.32-16,6.13-4.25-3.81-9.86-6.13-16-6.13h-16c-8.49,0-15.95,4.43-20.22,11.1-3.48-1.97-7.5-3.1-11.78-3.1h-16c-5.77,0-11.08,2.05-15.22,5.46l-11.12-11.12c-1.5-1.5-3.54-2.34-5.66-2.34-10.99,0-22.87,10.39-28.57,26.9-3.4-1.85-7.29-2.9-11.43-2.9-6.14,0-11.75,2.32-16,6.13-4.25-3.81-9.86-6.13-16-6.13-13.23,0-24,10.77-24,24v16c0,18.5,10.48,40,24,40,6.22,0,11.79-4.56,16-11.27,4.21,6.72,9.78,11.27,16,11.27s12.22-4.92,16.48-12.06c5.37,7.24,13.24,12.06,23.52,12.06,8.2,0,14.63-3.3,18.67-9.41,5.24,5.74,12.37,9.41,21.33,9.41,10.59,0,18.63-5.11,24-12.73,5.37,7.61,13.41,12.73,24,12.73s18.63-5.11,24-12.73c5.37,7.61,13.41,12.73,24,12.73s18.63-5.11,24-12.73c5.37,7.61,13.41,12.73,24,12.73,8.96,0,16.09-3.67,21.33-9.41,4.04,6.11,10.47,9.41,18.67,9.41,10.28,0,18.15-4.82,23.52-12.06,4.26,7.15,10.02,12.06,16.48,12.06s11.79-4.56,16-11.27c4.21,6.72,9.78,11.27,16,11.27,13.52,0,24-21.5,24-40v-16c0-13.23-10.77-24-24-24Zm-360,40c0,11.27-5.04,20.89-8,23.54-2.96-2.65-8-12.28-8-23.54v-16c0-4.41,3.59-8,8-8s8,3.59,8,8v16Zm32,0c0,11.27-5.04,20.89-8,23.54-2.96-2.65-8-12.28-8-23.54v-16c0-4.41,3.59-8,8-8s8,3.59,8,8v16Zm40-32v32c0,7.23,0,14.7-1.59,19.47-1.17,3.51-2.61,4.53-6.41,4.53-12.66,0-16-15.7-16-24v-16c0-16.96,8.06-28.24,13.47-31.22l10.53,10.53v4.69Zm48,32c0,8.3-3.34,24-16,24s-16-15.7-16-24v-32c0-4.41,3.59-8,8-8h16c4.41,0,8,3.59,8,8v32Zm48,0c0,8.3-3.34,24-16,24s-16-15.7-16-24v-40c0-4.41,3.59-8,8-8h16c4.41,0,8,3.59,8,8v40Zm48-32v32c0,8.3-3.34,24-16,24s-16-15.7-16-24v-40c0-4.41,3.59-8,8-8h16c4.41,0,8,3.59,8,8v8Zm48,32c0,8.3-3.34,24-16,24s-16-15.7-16-24v-32c0-4.41,3.59-8,8-8h16c4.41,0,8,3.59,8,8v32Zm40,0c0,8.3-3.34,24-16,24-3.8,0-5.24-1.02-6.41-4.53-1.59-4.77-1.59-12.24-1.59-19.47v-36.69l10.53-10.53c5.41,2.98,13.47,14.26,13.47,31.22v16Zm32,0c0,11.27-5.04,20.89-8,23.54-2.96-2.65-8-12.28-8-23.54v-16c0-4.41,3.59-8,8-8s8,3.59,8,8v16Zm32,0c0,11.27-5.04,20.89-8,23.54-2.96-2.65-8-12.28-8-23.54v-16c0-4.41,3.59-8,8-8s8,3.59,8,8v16Z"/></svg>