<svg xmlns="http://www.w3.org/2000/svg" data-name="Layer 1" viewBox="0 0 1000 1250" x="0px" y="0px"><title>5946-Root Canal</title><path d="M512.4,916a40.42,40.42,0,0,1-8.15-.84,39.55,39.55,0,0,1-30.54-29.07c-8.46-33-25.41-55-62.67-95a18.05,18.05,0,0,0-26.43,0c-37.26,40-54.21,62-62.68,95a39.8,39.8,0,0,1-70,14.43c-40.26-52.1-45-99.87-44.14-143.73A72.24,72.24,0,0,0,193.21,712c-24.68-32.59-39.75-68.29-44.79-106.11-9.33-70.19,26.33-138.25,88.75-169.37,33.72-16.8,66.85-19.1,98.46-6.81,26.83,10.42,46.85,29.56,58.91,43.78a4.32,4.32,0,0,0,6.56,0C431.2,438,469,419.79,507.69,422.18A16,16,0,0,1,517.42,450c-.35.32-.69.64-1,1-10.56,10.55-13.29,28.4-7.3,47.74a16,16,0,0,1-30.57,9.47c-5.52-17.82-6-35.3-1.67-50.56-22.18,6.95-39.52,22.57-51.35,36.51A36.25,36.25,0,0,1,397.84,507h0a36.25,36.25,0,0,1-27.69-12.81c-24-28.27-64.06-56.26-118.7-29-50.18,25-78.83,79.87-71.3,136.51,4.3,32.27,17.28,62.89,38.58,91a104.33,104.33,0,0,1,21,64.76c-.87,43.92,5.17,81.74,37.47,123.53a7.8,7.8,0,0,0,13.72-2.82c10.15-39.51,29.88-65.5,70.27-108.83a50,50,0,0,1,73.23,0c40.39,43.31,60.12,69.3,70.27,108.83A7.8,7.8,0,0,0,518.42,881c32.3-41.8,38.34-79.62,37.47-123.53a104.46,104.46,0,0,1,21-64.77c21.31-28.13,34.29-58.76,38.58-91q.59-4.44.89-8.89c-15.85,5.29-34.35,5.31-53.25-.41a16,16,0,0,1,9.27-30.63c19.13,5.79,36.8,3,47.26-7.46l.06-.06A16,16,0,0,1,647.4,563a167.85,167.85,0,0,1-.18,42.84c-5,37.82-20.1,73.52-44.78,106.11a72.2,72.2,0,0,0-14.55,44.82c.86,43.86-3.89,91.63-44.15,143.73A39.45,39.45,0,0,1,512.4,916Z"/><path d="M288.63,794.44a16,16,0,0,1-16-15.16c-.34-6.29-.42-13.22-.26-21.21A137.1,137.1,0,0,0,244.76,673c-17.86-23.57-28.71-49-32.24-75.61-5.7-42.81,15.8-84.2,53.49-103,10.31-5.14,20.05-7.74,28.94-7.74,21.47,0,39.19,15.59,50.28,28.66a69,69,0,0,0,105.19,0C459.1,505.05,473,492,490.09,487.92a16,16,0,0,1,7.44,31.13c-6.64,1.58-14.92,7.76-22.72,16.94a101,101,0,0,1-154,0c-9.08-10.71-19-17.36-25.88-17.36-2.68,0-7.4.76-14.67,4.38-25.45,12.68-39.94,40.86-36,70.12,2.8,21,11.55,41.4,26,60.5a169.38,169.38,0,0,1,33.1,83q5.31-5.82,10.56-11.43a114.7,114.7,0,0,1,167.8,0c3.48,3.73,7,7.55,10.55,11.43a169.47,169.47,0,0,1,33.09-83c14.48-19.11,23.24-39.46,26-60.51a70.28,70.28,0,0,0,.41-14.85,16,16,0,0,1,31.91-2.48,103.68,103.68,0,0,1-.6,21.56c-3.54,26.59-14.39,52-32.25,75.6a137.17,137.17,0,0,0-27.63,85.13c.15,8,.07,14.89-.26,21.19a16,16,0,0,1-28.57,9c-11.06-14.1-23.88-28.17-36.1-41.27a82.7,82.7,0,0,0-121,0c-12.2,13.08-25,27.13-36.11,41.27A16,16,0,0,1,288.63,794.44Z"/><path d="M573.23,537.85a41,41,0,0,1-36.35-59.74c93.18-180,118.17-218.86,243.1-378.43a40.88,40.88,0,0,1,68.49,44c-93.18,180-118.18,218.86-243.1,378.43A40.71,40.71,0,0,1,573.23,537.85ZM812.16,116a8.85,8.85,0,0,0-7,3.42C681.9,276.86,657.24,315.25,565.3,492.83h0a8.87,8.87,0,0,0,14.87,9.55C703.44,344.93,728.1,306.54,820.05,129a8.9,8.9,0,0,0-7.89-13ZM551.09,485.47h0Z"/><path d="M477.82,661.53c-.5,0-1,0-1.5-.07a16,16,0,0,1-14.45-17.41l4.4-47.5a16,16,0,0,1,8-12.4l31.19-17.91a32.26,32.26,0,0,0,11-10.49l29.81-46.54a16,16,0,0,1,27,17.26L543.39,573a64.49,64.49,0,0,1-22,21l-24,13.78L493.73,647A16,16,0,0,1,477.82,661.53Z"/><path d="M567.78,593a16,16,0,0,1-4.64-.69c-19.13-5.78-37.33-16.92-52.61-32.21-15.12-15.11-26.18-33.07-32-51.94a16,16,0,0,1,30.58-9.44c4.29,13.91,12.61,27.31,24,38.75s25.15,20,39.25,24.21A16,16,0,0,1,567.78,593Z"/></svg>