<svg xmlns="http://www.w3.org/2000/svg" xmlns:xlink="http://www.w3.org/1999/xlink" version="1.1" x="0px" y="0px" viewBox="11.77 9.44 488.459 616.41125" style="enable-background:new 11.77 9.44 488.459 493.129;" xml:space="preserve"><g><path d="M248.31,460.56c-0.64,0-1.28,0.08-1.89,0.23h-0.01c-2.08,0.51-3.83,1.79-4.94,3.609c-1.11,1.83-1.45,3.98-0.94,6.061   c0.87,3.59,4.07,6.1,7.76,6.1c0.64,0,1.28-0.069,1.9-0.22c0.01,0,0.01,0,0.01-0.01c4.28-1.04,6.91-5.38,5.87-9.66   C255.2,463.069,252,460.56,248.31,460.56z"/><path d="M19.77,413.75c4.41,0,8-3.59,8-8c0-0.01,0-0.01,0-0.021v-86.67h49.75c-4.52,18.9-6.73,35.05-6.74,49.37   c0.01,12.82,1.74,23.86,5.29,33.76c4.04,11.29,10.51,20.82,19.24,28.32c10.82,9.31,24.44,14.58,39.38,15.24   c0.78,0.03,1.54,0.05,2.34,0.05h0.09c7.17,0,13.85-1.53,19.87-4.54c7.53-3.76,14.1-9.79,20.1-18.44   c0.58-0.85,1.17-1.739,1.76-2.649c-0.13,1.939-0.19,3.84-0.19,5.649c0,8.44,1.37,15.641,4.19,22.03   c3.3,7.54,8.96,14.12,16.36,19.04c2.14,1.43,4.35,2.74,6.59,3.9c1.13,0.6,2.41,0.91,3.68,0.91c3,0,5.72-1.65,7.11-4.311   c2.03-3.91,0.51-8.75-3.41-10.79c-1.71-0.89-3.42-1.899-5.08-3.01c-5.03-3.39-8.41-7.271-10.62-12.21   c-1.9-4.29-2.82-9.38-2.82-15.561c-0.01-7.96,1.59-16.96,3.01-24.909c0.85-4.761,1.75-9.63,2.61-14.33   c0.87-4.75,1.78-9.66,2.64-14.521c0.69-3.899-1.63-7.77-5.4-9c-0.8-0.26-1.63-0.399-2.47-0.399c-3.04,0-5.86,1.76-7.19,4.489   c-2.21,4.5-4.4,9.061-6.53,13.48c-2.01,4.18-4.09,8.51-6.16,12.74v0.01c-5.03,10.28-9.67,19.32-15.53,25.82   c-3.11,3.479-6.31,6.01-9.79,7.739c-3.92,1.94-7.99,2.851-12.82,2.86c-0.58,0-1.11-0.01-1.64-0.04   c-11.48-0.53-21.46-4.36-29.65-11.38c-6.66-5.75-11.44-12.82-14.61-21.6c-2.89-8.021-4.35-17.561-4.35-28.351   c-0.01-15.17,2.85-33.26,8.75-55.3c0.63-2.39,0.12-4.98-1.39-6.94c-1.5-1.96-3.87-3.13-6.34-3.13H19.77   c-2.11,0-4.17,0.86-5.66,2.351c-1.49,1.489-2.34,3.55-2.34,5.649v94.69C11.77,410.16,15.36,413.75,19.77,413.75z"/><path d="M435.95,486.569H27.77v-0.819c0-4.41-3.59-8-8-8c-4.41,0-8,3.59-8,8v8.819c0,2.11,0.85,4.171,2.34,5.66   c1.49,1.49,3.55,2.34,5.66,2.34h416.18c4.409,0,8-3.59,8-8C443.95,490.16,440.359,486.569,435.95,486.569z"/><path d="M475.95,486.569c-4.42,0-8,3.591-8,8c0,4.41,3.58,8,8,8c4.409,0,8-3.59,8-8C483.95,490.16,480.359,486.569,475.95,486.569z   "/><path d="M477.399,303.069h-124.83c-2.279,0-4.46,0.971-5.97,2.671c-4.63,5.189-8.6,10.13-11.8,14.659   c-4.15,5.91-6.87,10.83-8.56,15.49c-2.171,6.08-4.221,12.061-6.19,17.851c-4.94,14.449-9.6,28.109-15.87,42.159   c-9.11,20.48-18.37,35.631-28.34,46.311c-1.38,1.49-2.14,3.42-2.14,5.45c0,2.22,0.93,4.35,2.55,5.859   c1.49,1.38,3.42,2.141,5.45,2.141c2.21,0,4.34-0.931,5.85-2.54c0-0.011,0.01-0.011,0.01-0.011   c6.431-6.939,12.351-15.06,18.101-24.819c4.42-7.51,8.59-15.73,13.13-25.87c6.649-14.93,11.62-29.49,16.42-43.58   c1.96-5.73,3.979-11.66,6.09-17.55c1.07-3.04,3.47-7.29,6.57-11.66c2.3-3.26,5.1-6.811,8.319-10.57h113.21v136.96   c0,4.41,3.591,8,8,8c4.41,0,8-3.59,8-8v-144.95c0-2.109-0.85-4.17-2.34-5.659C481.569,303.92,479.51,303.069,477.399,303.069z"/><path d="M19.77,453.75c4.41,0,8-3.59,8-8s-3.59-8-8-8c-4.41,0-8,3.59-8,8S15.36,453.75,19.77,453.75z"/><path d="M134.57,163.49c0.35,0.04,0.7,0.07,1.05,0.07c4,0,7.4-2.99,7.93-6.96c2.32-17.56,8.24-31.14,17.6-40.36   c8.99-8.81,20.27-13.11,34.47-13.16h0.17c16.194,0,35.172,6.239,54.846,17.845l-29.346,1.715c-2.13,0.13-4.09,1.07-5.51,2.67   c-1.42,1.6-2.13,3.65-2.01,5.78c0.25,4.23,3.75,7.54,7.98,7.54c0.16,0,0.32-0.01,0.47-0.02l47.253-2.762l17.518,44.542   c1.21,3.08,4.14,5.07,7.449,5.07c1,0,1.99-0.19,2.931-0.56c4.1-1.61,6.13-6.27,4.51-10.37l-15.271-38.825   c26.233,1.063,48.007,6.828,63.321,16.855c7.811,5.1,13.8,11.2,17.79,18.13c3.98,6.92,5.92,14.35,5.94,22.72   c0,10.44-3.16,21.72-9.38,33.54c-6.761,12.86-17.011,26.05-30.48,39.21c-9.06,8.87-16.95,17.6-23.47,25.93   c-8.98,11.51-15.03,21.78-18.521,31.4c-0.689,1.909-1.59,4.659-2.72,8.13c-1.23,3.779-2.771,8.489-4.57,13.75   c-7.08,20.72-14.149,37.72-21.02,50.55c-4.49,8.42-9.15,15.45-13.48,20.34c-4.25,4.85-8.76,8.12-12.36,8.96   c-2.07,0.51-3.82,1.8-4.92,3.63c-1.1,1.84-1.43,3.99-0.91,6.061c0.89,3.58,4.08,6.069,7.76,6.069c0.65,0,1.3-0.08,1.93-0.229   c4.95-1.25,9.66-3.811,14.41-7.86c6.64-5.71,12.771-13.689,19.311-25.12c7-12.31,13.819-27.71,20.85-47.069   c2.81-7.761,5.11-14.67,6.81-19.82c0.54-1.64,1.04-3.18,1.49-4.58c1.08-3.3,1.93-5.91,2.47-7.39c2.79-7.79,8.351-17.11,16.07-26.96   c6.09-7.801,13.51-15.99,22.061-24.351c14.649-14.33,25.899-28.86,33.449-43.19c7.44-14.14,11.21-27.93,11.21-41   c0.011-5.49-0.67-10.89-2.029-16.04c-1.351-5.15-3.38-10.09-6.04-14.67c-3.94-6.85-9.311-13.06-15.94-18.46   c-6.54-5.32-14.32-9.88-23.14-13.53c-17.931-7.43-39.8-11.19-65.03-11.2h-0.05c-14.51-10.66-28.87-18.82-42.69-24.27   c-13.66-5.39-26.82-8.14-39.11-8.16h-0.22c-8.86,0-17.25,1.51-24.94,4.49c-7.79,3.01-14.7,7.48-20.55,13.28   c-5.92,5.84-10.81,13.03-14.54,21.37c-3.72,8.32-6.31,17.84-7.69,28.29c-0.04,0.34-0.06,0.68-0.07,1.02   C127.6,159.54,130.59,162.96,134.57,163.49z"/><path d="M232.25,402.04c-1.23-1.76-3.06-2.92-5.16-3.29c-0.47-0.09-0.94-0.13-1.4-0.13c-3.88,0-7.19,2.779-7.87,6.609   c-0.37,2.11,0.1,4.23,1.32,5.98c1.23,1.75,3.06,2.92,5.17,3.29c0.46,0.08,0.93,0.12,1.4,0.12c3.88,0,7.19-2.771,7.87-6.61   C233.95,405.91,233.48,403.79,232.25,402.04z"/><path d="M107.49,368.46c0.05,11.54,1.86,20.09,5.7,26.92c2.34,4.12,5.56,7.5,9.31,9.79c3.92,2.399,8.7,3.79,13.83,4   c0.1,0.01,0.21,0.01,0.32,0.01c0.18,0,0.39,0,0.66-0.03c2.21-0.149,3.68-0.939,4.82-1.689c2.05-1.46,3.02-2.771,4.16-4.29   l0.14-0.19c2.22-3.149,4.43-7.26,6.48-11.229c2.72-5.29,5.88-11.851,9.23-18.79c7-14.55,14.93-31.04,23.55-45.96   c7.05-12.25,13.6-21.681,19.46-28.021c3.09-3.359,6.12-5.989,8.77-7.609c2.32-1.42,4.38-2.141,6.13-2.141h0.03   c0.65,0.011,1.25,0.101,1.88,0.29c1.1,0.37,1.83,0.87,2.71,1.87c1.56,1.76,2.95,5.11,3.8,9.17c0.95,4.38,1.44,10.141,1.44,16.66   c0.01,12.19-1.64,28.11-5.04,48.69c-0.07,0.439-0.11,0.88-0.11,1.319c0.01,3.92,2.82,7.24,6.7,7.87c0.44,0.08,0.88,0.11,1.32,0.11   c3.92,0,7.24-2.811,7.88-6.7c2.25-13.69,5.24-33.9,5.25-51.29c-0.03-10.91-1.11-19.14-3.41-25.91c-1.44-4.16-3.3-7.54-5.68-10.33   c-2.68-3.17-6.26-5.55-10.08-6.729c-2.15-0.67-4.39-1.01-6.64-1.01h-0.02c-5.93,0.02-11.76,2.22-17.82,6.739   c-8,6.03-15.67,15.21-24.87,29.78c-11.1,17.69-21.29,38.85-29.48,55.85l-0.88,1.83c-4.15,8.63-7.81,16.181-10.6,21.25   c-0.87,1.58-1.71,3-2.42,4.101c-1.17-0.28-2.2-0.69-3.15-1.271c-2.32-1.43-3.99-3.8-5.29-7.47c-1.37-3.93-2.09-9.32-2.08-15.59   c-0.04-16.82,5.09-38.72,9.39-54.12c2.03-7.31,4.41-15.14,7.27-23.93c0.87-2.69,1.67-5.12,2.38-7.271   c1.09-3.29,1.95-5.88,2.51-7.77c2.52-8.521,3.75-18.57,3.77-30.72c0-3.17-0.09-6.51-0.27-9.91c-0.22-4.39-4-7.81-8.4-7.58   c-2.13,0.11-4.09,1.05-5.53,2.63c-1.43,1.59-2.15,3.64-2.04,5.77c0.16,3.13,0.24,6.19,0.24,9.09c0.01,10.3-1.06,19.34-3.1,26.15   c-0.44,1.48-1.27,3.99-2.32,7.17c-0.73,2.21-1.56,4.72-2.46,7.49c-3.06,9.42-7.54,23.7-11.18,38.939   C109.55,342.05,107.5,356.46,107.49,368.46z"/><path d="M135.83,187.45c-0.31,0-0.63,0.02-0.94,0.05c-2.13,0.25-4.02,1.32-5.35,2.99c-1.32,1.68-1.91,3.78-1.66,5.9   c0.47,4.02,3.89,7.06,7.94,7.06c0.31,0,0.63-0.02,0.94-0.06c4.38-0.51,7.53-4.5,7.01-8.88   C143.29,190.48,139.88,187.45,135.83,187.45z"/><path d="M494.58,203.78l-28.761-8.81l-8.84-28.76c-1.029-3.33-4.17-5.65-7.66-5.65c-3.479,0-6.619,2.33-7.64,5.66l-8.82,28.75   l-28.779,8.81c-3.33,1.02-5.66,4.16-5.66,7.65c0,3.48,2.32,6.63,5.649,7.65l28.79,8.84l8.82,28.76c1.021,3.33,4.16,5.65,7.64,5.65   h0.011c3.479,0,6.62-2.32,7.649-5.65l8.84-28.76l28.761-8.84c3.33-1.03,5.649-4.17,5.649-7.65S497.899,204.8,494.58,203.78z    M457.069,213.87c-2.539,0.78-4.52,2.76-5.3,5.3l-2.43,7.9l-2.42-7.9c-0.78-2.54-2.76-4.52-5.3-5.3l-7.91-2.43l7.899-2.42   c2.54-0.78,4.53-2.76,5.311-5.3l2.42-7.9l2.43,7.9c0.78,2.54,2.761,4.52,5.3,5.3l7.9,2.42L457.069,213.87z"/><path d="M251.28,68l28.76,8.84l8.85,28.76c1.03,3.33,4.17,5.65,7.65,5.65c3.479,0,6.63-2.33,7.649-5.66l8.801-28.75l28.8-8.84   c3.319-1.02,5.649-4.17,5.649-7.65s-2.33-6.63-5.659-7.65L313,43.88l-8.811-28.79c-1.02-3.33-4.159-5.65-7.649-5.65   c-3.48,0-6.63,2.32-7.65,5.64l-8.85,28.8l-28.76,8.82c-3.33,1.03-5.65,4.17-5.65,7.65S247.95,66.98,251.28,68z M288.79,57.93   c2.529-0.78,4.52-2.76,5.3-5.3l2.43-7.91l2.42,7.9c0.78,2.55,2.761,4.53,5.311,5.31l7.91,2.43l-7.92,2.43   c-2.54,0.78-4.521,2.77-5.301,5.31l-2.42,7.89l-2.43-7.9c-0.78-2.54-2.76-4.52-5.3-5.3l-7.91-2.43L288.79,57.93z"/><path d="M21.54,179.78l28.75,8.82l8.85,28.75c1.03,3.33,4.17,5.65,7.65,5.65s6.62-2.32,7.65-5.65l8.85-28.76l28.75-8.81   c3.32-1.02,5.65-4.16,5.65-7.64s-2.32-6.63-5.64-7.65l-28.76-8.86l-8.85-28.76c-1.03-3.33-4.17-5.65-7.65-5.65   s-6.62,2.32-7.65,5.65l-8.85,28.76l-28.76,8.86c-3.33,1.02-5.65,4.17-5.65,7.65S18.21,178.76,21.54,179.78z M59.05,169.68   c2.53-0.78,4.51-2.76,5.29-5.29l2.45-7.97l2.45,7.97c0.78,2.53,2.76,4.51,5.29,5.29l7.92,2.44l-7.91,2.42   c-2.54,0.78-4.52,2.76-5.3,5.3l-2.45,7.96l-2.45-7.96c-0.78-2.54-2.77-4.52-5.3-5.3l-7.91-2.42L59.05,169.68z"/></g></svg>