<svg xmlns="http://www.w3.org/2000/svg" xmlns:xlink="http://www.w3.org/1999/xlink" version="1.1"
    x="0px" y="0px" viewBox="0 0 64 80" enable-background="new 0 0 64 64" xml:space="preserve"><g><path d="M47.169,41.916c0.193,0.288,0.509,0.444,0.832,0.444c0.191,0,0.384-0.055,0.555-0.169c0.459-0.307,0.582-0.928,0.275-1.387   c-2.114-3.16-5.479-5.239-9.231-5.704c-0.623-0.078-1.151-0.437-1.414-0.964C38.064,33.893,38,33.62,38,33.348V32   c0-0.006-0.003-0.011-0.003-0.016c1.035-0.779,1.912-1.752,2.58-2.868c1.791,0.653,3.673,1.002,5.557,1.002   c0.666,0,1.332-0.042,1.992-0.125c0.422-0.054,0.765-0.369,0.853-0.786c0.088-0.417-0.098-0.843-0.463-1.063   c-1.023-0.615-1.735-1.641-1.953-2.813c-0.218-1.17,0.076-2.378,0.809-3.32l0.936-1.215c1.508-1.931,2.42-4.24,2.638-6.677   c0.049-0.55-0.357-1.036-0.907-1.085c-0.552-0.048-1.036,0.357-1.085,0.907c-0.183,2.052-0.952,3.997-2.226,5.629l-0.937,1.216   c-1.081,1.388-1.517,3.178-1.194,4.91c0.163,0.876,0.512,1.697,1.013,2.412c-1.417-0.053-2.827-0.333-4.181-0.808   C41.792,26.265,42,25.157,42,24v-1.101c2.279-0.465,4-2.484,4-4.899c0-1.302-0.839-2.402-2-2.816V15   c0-0.555-0.054-1.114-0.132-1.671C44.552,12.778,45,11.945,45,11c0-0.514-0.142-0.992-0.371-1.415   c0.381-0.947,0.446-1.986,0.223-2.998c0.935,0.418,1.776,1.017,2.459,1.813c0.521,0.61,0.928,1.286,1.207,2.01   c0.153,0.396,0.532,0.64,0.933,0.64c0.12,0,0.242-0.022,0.36-0.067c0.515-0.199,0.771-0.778,0.573-1.293   c-0.362-0.936-0.884-1.807-1.555-2.591c-1.333-1.554-3.102-2.584-5.116-2.98c-0.032-0.006-0.062,0.004-0.094,0.001   c-0.112-0.133-0.215-0.272-0.341-0.398c-2.145-2.144-5.475-2.303-7.425-0.354c-0.07,0.07-0.132,0.149-0.197,0.224   C34.489,3.218,33.263,3,32,3c-3.874,0-7.454,1.868-9.712,5H22c-1.654,0-3,1.346-3,3c0,0.945,0.448,1.778,1.132,2.329   C20.054,13.886,20,14.445,20,15v0.184c-1.161,0.414-2,1.514-2,2.816c0,2.414,1.721,4.434,4,4.899V24c0,3.262,1.577,6.154,4,7.981   v1.367c0,0.272-0.064,0.545-0.187,0.789c-0.263,0.525-0.791,0.885-1.414,0.962c-4.104,0.509-7.647,2.877-9.723,6.497   C13.58,43.51,13,45.812,13,48.255v6.168l-2.499-3.927C10.814,50.079,11,49.561,11,49c0-0.562-0.187-1.082-0.501-1.5   C10.813,47.082,11,46.562,11,46c0-1.207-0.86-2.217-2-2.449V40c0-0.552-0.448-1-1-1H7v-2.142c1.72-0.447,3-2,3-3.858   c0-2.206-1.794-4-4-4s-4,1.794-4,4c0,1.858,1.28,3.411,3,3.858V39H4c-0.552,0-1,0.448-1,1v4.28c-0.609,0.549-1,1.337-1,2.22v5   c0,0.883,0.391,1.67,1,2.22V57c0,0.552,0.448,1,1,1h2.189l1.937,3.486C8.309,61.814,8.649,62,9.001,62   c0.164,0,0.331-0.041,0.485-0.126c0.482-0.268,0.657-0.877,0.388-1.36L8.421,57.9C8.761,57.74,9,57.4,9,57v-2.551   c0.473-0.096,0.896-0.33,1.231-0.653l4.925,7.74C15.347,61.836,15.67,62,16.001,62c0.184,0,0.37-0.05,0.536-0.156   c0.466-0.296,0.603-0.915,0.307-1.38L15,57.566v-9.311c0-2.094,0.488-4.053,1.413-5.665c1.255-2.19,3.15-3.826,5.391-4.747   l3.402,6.814c0.175,0.351,0.528,0.553,0.896,0.553c0.15,0,0.302-0.034,0.446-0.105c0.494-0.247,0.695-0.847,0.448-1.341   l-3.253-6.514c0.299-0.062,0.597-0.128,0.904-0.166c0.241-0.03,0.472-0.087,0.698-0.158l5.761,11.522   C31.275,48.786,31.621,49,32,49s0.725-0.214,0.895-0.553l5.761-11.522c0.226,0.071,0.457,0.128,0.698,0.158   c0.306,0.038,0.606,0.1,0.905,0.163L33.382,51h-2.763l-1.824-3.656c-0.247-0.494-0.848-0.694-1.341-0.449   c-0.494,0.247-0.695,0.847-0.449,1.341l2.1,4.21C29.274,52.786,29.621,53,30,53h4c0.379,0,0.725-0.214,0.895-0.553l7.299-14.598   C44.193,38.676,45.935,40.071,47.169,41.916z M4,33c0-1.103,0.897-2,2-2s2,0.897,2,2s-0.897,2-2,2S4,34.103,4,33z M5,41h2v2.5H5V41   z M5,54.5h2V56H5V54.5z M8.5,52.5H5c-0.551,0-1-0.449-1-1v-5c0-0.551,0.449-1,1-1h3.5C8.776,45.5,9,45.724,9,46s-0.224,0.5-0.5,0.5   c-0.552,0-1,0.448-1,1s0.448,1,1,1C8.776,48.5,9,48.724,9,49s-0.224,0.5-0.5,0.5c-0.552,0-1,0.448-1,1s0.448,1,1,1   C8.776,51.5,9,51.724,9,52S8.776,52.5,8.5,52.5z M22,15.184V15c0-0.332,0.018-0.666,0.052-1h5.13c-1.299,0.648-2.737,1-4.182,1   c-0.28,0-0.531,0.116-0.713,0.302C22.194,15.257,22.098,15.219,22,15.184z M36.899,10H42c0.551,0,1,0.449,1,1s-0.449,1-1,1h-5.101   C36.965,11.677,37,11.342,37,11S36.965,10.323,36.899,10z M42,15v0.184c-0.098,0.035-0.194,0.073-0.287,0.117   C41.531,15.116,41.28,15,41,15c-1.445,0-2.882-0.352-4.182-1h5.13C41.982,14.334,42,14.668,42,15z M38.015,25.331L40,22.85V24   c0,1.516-0.432,2.93-1.167,4.14C38.325,27.291,38.043,26.33,38.015,25.331z M32,14c-1.654,0-3-1.346-3-3s1.346-3,3-3s3,1.346,3,3   S33.654,14,32,14z M24,16.955c1.841-0.167,3.625-0.813,5.187-1.826C29.989,15.677,30.957,16,32,16s2.011-0.323,2.813-0.871   c1.562,1.013,3.346,1.659,5.187,1.826v2.695l-3.273,4.091c-1.232-0.608-2.544-0.965-3.878-1.072l0.105-0.196   c0.261-0.486,0.078-1.093-0.409-1.354c-0.488-0.261-1.093-0.079-1.354,0.409l-0.635,1.183c-1.131,0.154-2.235,0.512-3.284,1.03   L24,19.65V16.955z M27.989,25.592c2.518-1.307,5.505-1.307,8.022,0c0.082,1.517,0.608,2.964,1.505,4.187   C36.08,31.151,34.139,32,32,32c-2.139,0-4.079-0.849-5.516-2.22C27.381,28.556,27.907,27.11,27.989,25.592z M42,20.829V18   c0-0.551,0.449-1,1-1s1,0.449,1,1C44,19.304,43.164,20.416,42,20.829z M41.864,5.136c0.858,0.859,1.249,2.002,1.101,3.038   C42.66,8.069,42.339,8,42,8h-0.288c-1.077-1.493-2.442-2.71-4.011-3.56C38.898,3.67,40.654,3.925,41.864,5.136z M22,10h2.555   c0.552,0,1-0.448,1-1c0-0.452-0.306-0.82-0.718-0.943C26.703,6.126,29.262,5,32,5c2.712,0,5.247,1.104,7.109,3h-3.135   C35.061,6.793,33.627,6,32,6c-2.757,0-5,2.243-5,5c0,0.342,0.035,0.677,0.101,1H22c-0.551,0-1-0.449-1-1S21.449,10,22,10z M20,18   c0-0.551,0.449-1,1-1s1,0.449,1,1v2.829C20.836,20.416,20,19.304,20,18z M24,22.85l1.985,2.481   c-0.028,0.998-0.31,1.959-0.817,2.808C24.432,26.93,24,25.516,24,24V22.85z M32,34c1.422,0,2.774-0.303,4-0.841v0.188   c0,0.582,0.138,1.165,0.397,1.683c0.15,0.3,0.341,0.572,0.561,0.817L34.382,41h-4.764l-2.576-5.153   c0.22-0.244,0.411-0.516,0.56-0.816C27.862,34.512,28,33.93,28,33.348v-0.188C29.226,33.697,30.578,34,32,34z M32,45.764L30.618,43   h2.764L32,45.764z"/><path d="M34.707,19.707c0.713-0.713,1.873-0.713,2.586,0C37.488,19.902,37.744,20,38,20s0.512-0.098,0.707-0.293   c0.391-0.391,0.391-1.023,0-1.414c-1.492-1.493-3.922-1.493-5.414,0c-0.391,0.391-0.391,1.023,0,1.414S34.316,20.098,34.707,19.707   z"/><circle cx="36" cy="21" r="1"/><path d="M29.293,19.707C29.488,19.902,29.744,20,30,20s0.512-0.098,0.707-0.293c0.391-0.391,0.391-1.023,0-1.414   c-1.492-1.493-3.922-1.493-5.414,0c-0.391,0.391-0.391,1.023,0,1.414s1.023,0.391,1.414,0C27.42,18.994,28.58,18.994,29.293,19.707   z"/><circle cx="28" cy="21" r="1"/><path d="M44,49c-0.552,0-1,0.448-1,1v11c0,0.552,0.448,1,1,1s1-0.448,1-1V50C45,49.448,44.552,49,44,49z"/><path d="M20,49c-0.552,0-1,0.448-1,1v11c0,0.552,0.448,1,1,1s1-0.448,1-1V50C21,49.448,20.552,49,20,49z"/><circle cx="32" cy="11" r="1"/><path d="M46.728,47.848l-1.413,9.186c-0.084,0.546,0.291,1.056,0.836,1.14c0.051,0.008,0.103,0.012,0.153,0.012   c0.485,0,0.911-0.354,0.987-0.848L48.574,49h4.062l-0.562,7.307C51.915,58.378,50.164,60,48.086,60c-0.552,0-1,0.448-1,1   s0.448,1,1,1c3.116,0,5.743-2.434,5.982-5.54L54.643,49h0.398c2.011,0,3.877-0.999,4.992-2.672l1.488-2.231   c0.423-0.634,0.573-1.395,0.424-2.142c-0.149-0.747-0.581-1.392-1.215-1.814c-0.42-0.28-0.889-0.423-1.36-0.459   c1.097-2.189,1.631-5.2,1.631-6.253C61,30.987,59.013,29,56.571,29c-0.764,0-1.519,0.202-2.182,0.584   c-0.247,0.143-0.531,0.143-0.778,0C52.947,29.202,52.193,29,51.429,29C48.987,29,47,30.987,47,33.429   c0,1.725,1.424,8.714,4.429,8.714c1.504,0,1.867-1.644,2.217-3.233c0.068-0.311,0.139-0.632,0.219-0.951   c0.03-0.118,0.239-0.119,0.27,0c0.08,0.318,0.151,0.639,0.219,0.95c0.296,1.341,0.608,2.709,1.599,3.108L55.216,43h-4.158   c-1.839,0-3.435,1.246-3.88,3.03L46.728,47.848z M54,35.857c-0.982,0-1.835,0.664-2.074,1.614c-0.085,0.337-0.16,0.678-0.233,1.008   c-0.112,0.506-0.27,1.224-0.424,1.582C50.399,39.42,49,35.44,49,33.429C49,32.089,50.089,31,51.429,31   c0.42,0,0.818,0.106,1.183,0.317c0.869,0.502,1.907,0.502,2.776,0C55.753,31.106,56.151,31,56.571,31   C57.911,31,59,32.089,59,33.429c0,2.017-1.406,6.012-2.268,6.637c-0.154-0.357-0.313-1.078-0.425-1.586   c-0.073-0.33-0.148-0.67-0.233-1.007C55.835,36.521,54.982,35.857,54,35.857z M59.856,42.987l-1.488,2.232   C57.625,46.334,56.381,47,55.041,47h-6.043l0.122-0.485C49.341,45.623,50.139,45,51.059,45h4.658c0.315,0,0.611-0.148,0.8-0.4   l1.948-2.598c0.271-0.362,0.78-0.449,1.156-0.198c0.189,0.126,0.318,0.319,0.363,0.542C60.028,42.57,59.983,42.797,59.856,42.987z"/><path d="M34.489,30.562c0.522-0.178,0.802-0.747,0.624-1.27c-0.178-0.522-0.746-0.804-1.27-0.624c-1.19,0.405-2.497,0.405-3.688,0   c-0.524-0.18-1.091,0.102-1.27,0.624c-0.178,0.523,0.102,1.091,0.624,1.27c0.804,0.274,1.642,0.413,2.489,0.413   S33.686,30.835,34.489,30.562z"/><path d="M29.511,27.562c0.804,0.274,1.642,0.413,2.489,0.413s1.686-0.139,2.489-0.413c0.522-0.178,0.802-0.747,0.624-1.27   c-0.178-0.522-0.746-0.803-1.27-0.624c-1.19,0.405-2.497,0.405-3.688,0c-0.524-0.179-1.091,0.101-1.27,0.624   C28.709,26.815,28.988,27.383,29.511,27.562z"/></g></svg>