<svg xmlns="http://www.w3.org/2000/svg" viewBox="0 0 68 85" x="0px" y="0px"><title>dentist chair, dental clinic, dentist, patient, dental</title><g data-name="Dentist Chair"><path d="M63.3569,63H60.0713V59.9287a3.0033,3.0033,0,0,0-3-3H56.717l-8.9425-8.39A4.6265,4.6265,0,0,0,50.1,44.6445l.0059-.2061,6.6059,6.4122A4.6814,4.6814,0,0,0,59.9673,52.17c.081,0,.1626-.0019.2441-.0058a4.6668,4.6668,0,0,0,2.9263-8.0791l-9.6538-8.9639c-.1556-.1446-.3179-.28-.4839-.4091V11.1084A7.757,7.757,0,0,0,45.2515,3.36H39.25a1.0013,1.0013,0,0,0-.6455.2363l-2.097,1.7726A7.7151,7.7151,0,0,0,25.0449,6.58a.9571.9571,0,0,0-.0564.12,1.2472,1.2472,0,0,0-.1212.4957.9857.9857,0,0,0,.0452.2365.9616.9616,0,0,0,.0307.1184.9891.9891,0,0,0,.2072.3141l9.37,9.4394A.9972.9972,0,0,0,35.23,17.6h.0005a.8578.8578,0,0,0,.4366-.1137.96.96,0,0,0,.1381-.0679A7.7185,7.7185,0,0,0,37.81,6.8874L39.6162,5.36h5.6353A5.7544,5.7544,0,0,1,51,11.1084V33.6136a7.2584,7.2584,0,0,0-2.4614-.4349H30.6569L33.4844,30H45.9287a1,1,0,0,0,0-2H33.0356a1,1,0,0,0-.747.335L27.98,33.1787h-.4679a3.0161,3.0161,0,0,1-1.9907-.749l-6.1857-5.4119a3.1329,3.1329,0,0,0-.6776-3.4035h0l-5.6689-5.669a3.1323,3.1323,0,0,0-4.4229,0l-4.062,4.0625a3.13,3.13,0,0,0,0,4.4229L10.1719,32.1a3.12,3.12,0,0,0,2.2114.915c.0755,0,.15-.0161.2254-.0216l7.9343,7.1408a7.2531,7.2531,0,0,0,3.8623,1.79v2.5893a4.6711,4.6711,0,0,0,4.666,4.666H35.533l8.2608,7.75H19.6069a3.0033,3.0033,0,0,0-3,3V63H13.3213a1,1,0,0,0,0,2H63.3569a1,1,0,0,0,0-2ZM35.3008,15.252,27.2075,7.0986a5.745,5.745,0,1,1,8.0933,8.1534ZM5.9175,25.0166a1.1292,1.1292,0,0,1,0-1.5947L9.979,19.36a1.13,1.13,0,0,1,1.5952-.001l5.6685,5.6689a1.1141,1.1141,0,0,1,.1335,1.3939.9335.9335,0,0,0-.1286.0983.9621.9621,0,0,0-.1316.23l-3.9353,3.9353a1.1293,1.1293,0,0,1-1.5948,0ZM14.6,32.0945l3.5-3.4994,6.1034,5.34a5.0167,5.0167,0,0,0,3.3086,1.2441H48.5386a5.2536,5.2536,0,0,1,3.5844,1.4072L61.7769,45.55A2.6664,2.6664,0,0,1,60.105,50.166a2.6341,2.6341,0,0,1-1.9995-.75l-8.2383-7.9971A5.0006,5.0006,0,0,0,46.3682,40H25.4053a5.2622,5.2622,0,0,1-3.5244-1.3525ZM26.4053,44.5127V42H46.3682a2.996,2.996,0,0,1,1.7892.6011l-.0563,1.9868a2.6526,2.6526,0,0,1-2.6651,2.5908H29.0713A2.6691,2.6691,0,0,1,26.4053,44.5127Zm12.0509,4.666h6.98c.03,0,.0578-.008.0878-.0085l8.27,7.7585H46.717Zm-19.8493,10.75a1.0011,1.0011,0,0,1,1-1H57.0713a1.001,1.001,0,0,1,1,1V63H18.6069Z"/></g></svg>