<svg xmlns="http://www.w3.org/2000/svg" xmlns:xlink="http://www.w3.org/1999/xlink" version="1.1" x="0px" y="0px" viewBox="0 0 56 70" style="enable-background:new 0 0 56 56;" xml:space="preserve"><path d="M45.3525391,10.1893921c-0.640625-2.7749023-2.0966797-4.7836914-4.3291016-5.9707031  C36.3046875,1.7094116,29.6289063,3.758728,28,4.3241577C26.3710938,3.758728,19.6962891,1.7094116,14.9775391,4.218689  c-2.2324219,1.1865234-3.6894531,3.1953125-4.3300781,5.9702148c-2.2431641,9.7202148,1.6494141,17.7851563,2.5117188,19.40625  c-0.2011719,2.5053711-1.1513672,18.3066406,6.4189453,23.0087891c0.4179688,0.2597656,0.9189453,0.3969727,1.4492188,0.3969727  c1.4628906,0,2.6708984-1.0961914,2.8105469-2.5493164c0.5917969-6.1435547,1.9794922-13.2197266,4.1601563-15.7177734  c1.8544922,2.1479492,3.4189453,7.9916992,4.1650391,15.7177734c0.1396484,1.453125,1.3476563,2.5493164,2.8105469,2.5493164  c0.5292969,0,1.0302734-0.137207,1.4482422-0.3969727c7.5703125-4.7021484,6.6201172-20.503418,6.4189453-23.0087891  C43.703125,27.9740601,47.5957031,19.9091187,45.3525391,10.1893921z M40.9521484,28.8793335  c-0.1035156,0.1801758-0.1494141,0.3891602-0.1289063,0.5957031c0.015625,0.1704102,1.5566406,17.0742188-5.4560547,21.4296875  c-0.0996094,0.0620117-0.2392578,0.0961914-0.3935547,0.0961914c-0.4267578,0-0.7792969-0.3183594-0.8203125-0.7412109  c-0.5302734-5.4960938-1.9589844-15.1035156-5.5703125-17.6938477c-0.1748047-0.125-0.3789063-0.1875-0.5830078-0.1875  s-0.4082031,0.0625-0.5830078,0.1875c-3.6142578,2.5917969-5.0410156,12.1987305-5.5693359,17.6943359  c-0.0410156,0.4223633-0.3935547,0.7407227-0.8203125,0.7407227c-0.1542969,0-0.2949219-0.0341797-0.3945313-0.0961914  c-7.0048828-4.3505859-5.4716797-21.2597656-5.4560547-21.4296875c0.0205078-0.2075195-0.0253906-0.4165039-0.1298828-0.5966797  C15,28.7963257,10.3125,20.5370483,12.5966797,10.6390991c0.5107422-2.2148438,1.5957031-3.7363281,3.3154297-4.6523438  c4.4873047-2.3886719,11.6572266,0.3071289,11.7294922,0.3339844c0.2324219,0.0898438,0.4882813,0.0878906,0.7167969,0  c0.0712891-0.027832,7.2265625-2.7270508,11.7265625-0.3359375c1.7216797,0.9155273,2.8076172,2.4379883,3.3183594,4.6542969  C45.6806641,20.5057983,41,28.796814,40.9521484,28.8793335z"/><path d="M35.8544922,21.4052124c-4.3320313,4.3310547-11.3769531,4.3310547-15.7089844,0  c-0.390625-0.390625-1.0234375-0.390625-1.4140625,0s-0.390625,1.0234375,0,1.4140625  C21.2871094,25.374939,24.6435547,26.6522827,28,26.6522827s6.7128906-1.2773438,9.2685547-3.8330078  c0.390625-0.390625,0.390625-1.0234375,0-1.4140625S36.2451172,21.0145874,35.8544922,21.4052124z"/><path d="M32.4667969,19.0722046c1.6542969,0,3-1.3457031,3-3s-1.3457031-3-3-3s-3,1.3457031-3,3  S30.8125,19.0722046,32.4667969,19.0722046z M32.4667969,15.0722046c0.5517578,0,1,0.4487305,1,1s-0.4482422,1-1,1s-1-0.4487305-1-1  S31.9150391,15.0722046,32.4667969,15.0722046z"/><path d="M23.5332031,19.0722046c1.6542969,0,3-1.3457031,3-3s-1.3457031-3-3-3s-3,1.3457031-3,3  S21.8789063,19.0722046,23.5332031,19.0722046z M23.5332031,15.0722046c0.5517578,0,1,0.4487305,1,1s-0.4482422,1-1,1  s-1-0.4487305-1-1S22.9814453,15.0722046,23.5332031,15.0722046z"/></svg>