<svg xmlns="http://www.w3.org/2000/svg" xmlns:xlink="http://www.w3.org/1999/xlink" version="1.1"
    x="0px" y="0px" viewBox="0 0 24 30" enable-background="new 0 0 24 24" xml:space="preserve"><g><path d="M23.826,15.979c0-1.634-1.229-2.963-2.738-2.963H10.042c0,0,0,0,0,0s0,0,0,0c-4.808,0-6.424-4.723-6.49-4.924   C3.54,8.057,3.523,8.023,3.502,7.993C3.16,7.486,2.59,7.184,1.979,7.184c-1.013,0-1.837,0.824-1.837,1.837v0.062c0,0,0,0,0,0   s0,0,0,0v6.896c0,1.468,0.993,2.681,2.29,2.914v1.294c0,0.221,0.179,0.4,0.4,0.4h1.995c0.221,0,0.4-0.18,0.4-0.4v-1.245h13.515   v1.245c0,0.221,0.18,0.4,0.4,0.4h1.995c0.221,0,0.4-0.18,0.4-0.4v-1.294C22.833,18.66,23.826,17.447,23.826,15.979z M4.426,19.787   H3.231v-0.845h1.195V19.787z M20.736,19.787h-1.194v-0.845h1.194V19.787z M21.088,18.142h-1.946H4.826H2.879   c-1.068,0-1.938-0.97-1.938-2.162V9.083c0-0.011-0.005-0.02-0.006-0.031c0.001-0.011,0.006-0.021,0.006-0.032   c0-0.572,0.465-1.038,1.038-1.038c0.33,0,0.638,0.156,0.834,0.42c0.221,0.604,2.147,5.414,7.229,5.414c0,0,0,0,0,0s0,0,0,0h11.046   c1.068,0,1.938,0.97,1.938,2.162S22.156,18.142,21.088,18.142z"/><path d="M7.975,10.042c0,1.163,0.899,2.108,2.004,2.108h11.804c0.081,0,0.152-0.03,0.216-0.072   c0.013-0.008,0.024-0.014,0.035-0.024c0.058-0.048,0.101-0.109,0.125-0.182c0.002-0.006,0.008-0.009,0.01-0.015l0.94-3.387   c0.097-0.256,0.088-0.535-0.025-0.785c-0.112-0.25-0.315-0.44-0.572-0.537c-0.481-0.182-1.001,0.037-1.244,0.476   c-0.018,0.02-0.03,0.045-0.043,0.069c-0.009,0.019-0.025,0.032-0.033,0.053c-0.002,0.005-0.001,0.009-0.002,0.014   c-0.002,0.005-0.006,0.009-0.008,0.014c-0.169,0.571-0.511,0.98-1.044,1.251c-1.989,1.009-5.759-0.307-5.799-0.32   c-2.78-0.964-4.696-1.042-5.691-0.229C7.864,9.117,7.972,10.042,7.975,10.042z M9.154,9.097c0.429-0.352,1.642-0.773,4.92,0.364   c0.168,0.06,4.133,1.447,6.425,0.279c0.718-0.365,1.2-0.939,1.436-1.703c0.001-0.003,0.003-0.004,0.004-0.007   c0.044-0.116,0.179-0.172,0.29-0.132c0.057,0.021,0.102,0.063,0.126,0.118s0.027,0.116-0.006,0.206l-0.871,3.129h-11.5   c-0.664,0-1.204-0.587-1.208-1.361C8.771,9.983,8.714,9.456,9.154,9.097z"/><path d="M6.236,9.78c1.211,0,2.197-0.985,2.197-2.197S7.447,5.387,6.236,5.387S4.039,6.372,4.039,7.583S5.024,9.78,6.236,9.78z    M6.236,6.187c0.77,0,1.397,0.627,1.397,1.397S7.006,8.98,6.236,8.98S4.839,8.354,4.839,7.583S5.466,6.187,6.236,6.187z"/></g></svg>