<svg xmlns="http://www.w3.org/2000/svg" xmlns:xlink="http://www.w3.org/1999/xlink" version="1.1" x="0px" y="0px" viewBox="0 0 100 125" style="enable-background:new 0 0 100 100;" xml:space="preserve"><path d="M78.606,46.216c0.412-0.694,0.802-1.349,1.264-1.958c3.604-4.753,5.288-10.183,5.149-16.602  c-0.086-3.921-0.921-7.015-2.631-9.737c-3.329-5.307-10.283-8.406-17.302-7.71c-2.918,0.289-5.583,0.966-8.146,2.07  c-4.597,1.979-8.963,2.015-13.345,0.107c-4.985-2.172-9.931-2.788-14.702-1.829c-7.277,1.462-12.328,6.208-13.51,12.696  c-1.411,7.745,0.101,14.757,4.492,20.843c1.056,1.463,1.827,3.165,2.572,4.81l0.131,0.287c0.151,0.335,0.13,0.87,0.109,1.388  l-0.015,0.415c-0.07,3.301-0.025,6.301,0.127,9.132c-0.804-0.761-1.499-1.634-2.036-2.617l-1.076-1.968  c-0.35-0.642-1.404-0.642-1.754,0l-1.076,1.968c-0.983,1.796-2.451,3.265-4.246,4.246l-1.968,1.076  c-0.321,0.175-0.521,0.512-0.521,0.877s0.199,0.702,0.521,0.877l1.968,1.076c1.795,0.982,3.264,2.451,4.246,4.246l1.076,1.968  c0.175,0.321,0.512,0.52,0.877,0.52s0.702-0.199,0.877-0.52l1.077-1.968c0.668-1.222,1.577-2.277,2.647-3.147  c0.252,1.926,0.554,3.816,0.933,5.609c0.978,4.637,5.214,14.851,9.49,17.027c0.015,0.008,0.032,0.01,0.047,0.018  c0.008,0.004,0.013,0.011,0.022,0.015c0.729,0.303,1.447,0.454,2.143,0.454c0.922,0,1.802-0.265,2.607-0.793  c6.337-4.153,6.837-23.967,6.873-26.229c0-2.353,2.006-4.417,4.292-4.417c2.436,0,4.417,1.981,4.417,4.433  c0.001,0.054,0.097,5.484,0.942,11.33c1.165,8.06,3.16,13.067,5.931,14.883c0.806,0.528,1.686,0.793,2.607,0.793  c0.695,0,1.414-0.151,2.143-0.454c0.045-0.019,0.088-0.04,0.129-0.064c3.427-2.046,5.216-5.026,6.391-7.395  c1.845-3.719,3.065-7.89,3.731-12.751c0.595-4.351,1.153-16.591,1.088-18.486c-0.047-1.398,0.29-2.67,1.03-3.888L78.606,46.216z   M19.011,68.949l-0.199,0.364l-0.199-0.364c-1.166-2.131-2.909-3.875-5.041-5.041l-0.363-0.199l0.363-0.199  c2.132-1.166,3.875-2.909,5.041-5.041l0.199-0.364l0.198,0.363c1.166,2.132,2.909,3.875,5.042,5.042l0.363,0.199l-0.363,0.199  C21.918,65.075,20.175,66.818,19.011,68.949z M76.887,45.195l-0.366,0.612c-0.937,1.54-1.38,3.22-1.319,4.996  c0.059,1.717-0.492,13.911-1.072,18.146c-0.635,4.643-1.793,8.612-3.54,12.133c-1.046,2.108-2.623,4.75-5.562,6.528  c-1.071,0.428-1.97,0.366-2.82-0.192c-4.619-3.027-5.875-18.764-5.97-24.556c0-3.538-2.879-6.417-6.417-6.417  c-3.41,0-6.292,2.938-6.292,6.4c-0.094,5.808-1.349,21.543-5.97,24.572c-0.858,0.563-1.766,0.617-2.849,0.177  c-3.507-1.831-7.489-11.28-8.407-15.637c-0.433-2.046-0.78-4.211-1.043-6.431l1.718-0.94c0.321-0.175,0.521-0.512,0.521-0.877  s-0.199-0.702-0.521-0.877l-1.968-1.076c-0.04-0.022-0.075-0.051-0.115-0.074c-0.232-3.258-0.306-6.74-0.222-10.644l0.013-0.377  c0.029-0.716,0.062-1.528-0.287-2.295l-0.129-0.286c-0.787-1.735-1.601-3.529-2.773-5.154c-4.117-5.707-5.474-12.024-4.146-19.314  c1.03-5.652,5.492-9.799,11.938-11.094c4.419-0.888,8.84-0.333,13.509,1.702c4.917,2.14,9.803,2.106,14.935-0.104  c2.372-1.021,4.842-1.648,7.553-1.917c6.276-0.627,12.475,2.104,15.411,6.783c1.509,2.403,2.247,5.174,2.324,8.718  c0.129,5.95-1.423,10.97-4.743,15.35C77.746,43.749,77.31,44.484,76.887,45.195z"/><path d="M32.555,17.706c-0.109-0.542-0.639-0.892-1.178-0.784c-5.107,1.026-8.653,4.366-9.485,8.935  c-0.981,5.383,0.07,10.259,3.126,14.493c0.195,0.271,0.501,0.415,0.812,0.415c0.202,0,0.407-0.062,0.584-0.189  c0.448-0.323,0.549-0.948,0.226-1.396c-2.763-3.828-3.672-8.069-2.78-12.964c0.68-3.732,3.638-6.474,7.913-7.332  C32.312,18.774,32.663,18.248,32.555,17.706z"/><path d="M88.327,57.755l1.155-0.632c0.321-0.175,0.521-0.512,0.521-0.877s-0.199-0.702-0.521-0.877l-1.155-0.632  c-0.984-0.539-1.789-1.344-2.328-2.329l-0.632-1.155c-0.35-0.642-1.404-0.642-1.754,0l-0.632,1.155  c-0.54,0.986-1.346,1.791-2.329,2.329l-1.155,0.632c-0.321,0.175-0.521,0.512-0.521,0.877s0.199,0.702,0.521,0.877l1.155,0.632  c0.984,0.538,1.789,1.343,2.329,2.329l0.632,1.155c0.175,0.321,0.512,0.52,0.877,0.52s0.702-0.199,0.877-0.52L86,60.083  C86.537,59.099,87.343,58.294,88.327,57.755z M84.49,58.706c-0.627-0.995-1.466-1.834-2.461-2.46  c0.995-0.626,1.834-1.465,2.461-2.46c0.626,0.995,1.465,1.834,2.46,2.46C85.954,56.872,85.116,57.711,84.49,58.706z"/><path d="M45.479,37.35l-1.325-0.725c-1.153-0.631-2.097-1.575-2.729-2.729L40.7,32.572c-0.35-0.641-1.404-0.641-1.754,0  l-0.725,1.325c-0.632,1.154-1.575,2.098-2.729,2.729l-1.325,0.725c-0.321,0.175-0.521,0.512-0.521,0.877s0.199,0.702,0.521,0.877  l1.325,0.725c1.153,0.631,2.098,1.575,2.729,2.729l0.725,1.325c0.175,0.321,0.512,0.52,0.877,0.52s0.702-0.199,0.877-0.52  l0.725-1.325c0.631-1.154,1.575-2.097,2.729-2.729l1.324-0.725c0.32-0.176,0.52-0.512,0.52-0.877S45.799,37.526,45.479,37.35z   M39.823,41.33c-0.759-1.28-1.822-2.344-3.103-3.103c1.279-0.759,2.344-1.823,3.103-3.103c0.759,1.28,1.823,2.344,3.103,3.103  C41.646,38.986,40.582,40.05,39.823,41.33z"/><path d="M82.178,74.51c0.553,0,1-0.448,1-1v-1.312h1.312c0.553,0,1-0.448,1-1s-0.447-1-1-1h-1.312v-1.312c0-0.552-0.447-1-1-1  s-1,0.448-1,1v1.312h-1.312c-0.553,0-1,0.448-1,1s0.447,1,1,1h1.312v1.312C81.178,74.062,81.625,74.51,82.178,74.51z"/><path d="M33.887,47.758h-1.312v-1.312c0-0.552-0.447-1-1-1s-1,0.448-1,1v1.312h-1.312c-0.553,0-1,0.448-1,1s0.447,1,1,1h1.312v1.312  c0,0.552,0.447,1,1,1s1-0.448,1-1v-1.312h1.312c0.553,0,1-0.448,1-1S34.439,47.758,33.887,47.758z"/><path d="M14.949,73.688c-0.553,0-1,0.448-1,1V76h-1.312c-0.553,0-1,0.448-1,1s0.447,1,1,1h1.312v1.312c0,0.552,0.447,1,1,1  s1-0.448,1-1V78h1.312c0.553,0,1-0.448,1-1s-0.447-1-1-1h-1.312v-1.312C15.949,74.135,15.502,73.688,14.949,73.688z"/></svg>